<?xml version="1.0" encoding="utf-8"?><!-- Uploaded to: SVG Repo, www.svgrepo.com, Generator: SVG Repo Mixer Tools -->
<svg fill="#000000" width="800px" height="800px" viewBox="0 0 24 24" id="eraser-4" data-name="Flat Color" xmlns="http://www.w3.org/2000/svg" class="icon flat-color"><path id="primary" d="M2.59,13.93,12.93,3.58A2,2,0,0,1,14.35,3h0a2,2,0,0,1,1.41.58l5.66,5.66a2,2,0,0,1,0,2.83l-8.64,8.64a1,1,0,0,1-.71.29H7.66a2,2,0,0,1-1.42-.59L2.59,16.76A2,2,0,0,1,2.59,13.93Z" style="fill: rgb(0, 0, 0);"></path><path id="secondary" d="M2.59,13.93,7.24,9.28l8.48,8.48L14.49,19H18a1,1,0,0,1,0,2H7.66a2,2,0,0,1-1.42-.59L2.59,16.76A2,2,0,0,1,2.59,13.93Z" style="fill: rgb(44, 169, 188);"></path></svg>